<?xml version="1.0" encoding="utf-8"?>
<svg xmlns="http://www.w3.org/2000/svg" viewBox="-100 -100 200 200" overflow="visible">
  <g fill="#000000" stroke="#000000" stroke-width="94" stroke-linecap="round">
    <line x1="7.42" y1="0.26" x2="3.32" y2="0.26" />
    <line x1="3.32" y1="0.26" x2="3.32" y2="0" />
    <line x1="3.32" y1="0" x2="7.42" y2="0" />
    <line x1="7.42" y1="0" x2="7.42" y2="0.26" />
    <line x1="7.42" y1="-0" x2="7.16" y2="-0" />
    <line x1="7.16" y1="-0" x2="7.16" y2="-0.41" />
    <line x1="7.16" y1="-0.41" x2="7.42" y2="-0.41" />
    <line x1="7.42" y1="-0.41" x2="7.42" y2="-0" />
    <line x1="4.56" y1="11.21" x2="1.59" y2="11.21" />
    <line x1="1.59" y1="11.21" x2="1.59" y2="9.31" />
    <line x1="1.59" y1="9.31" x2="4.56" y2="9.31" />
    <line x1="4.56" y1="9.31" x2="4.56" y2="11.21" />
    <line x1="7.35" y1="8.44" x2="4.73" y2="8.44" />
    <line x1="4.73" y1="8.44" x2="4.73" y2="0.13" />
    <line x1="4.73" y1="0.13" x2="7.35" y2="0.13" />
    <line x1="7.35" y1="0.13" x2="7.35" y2="8.44" />
    <line x1="13" y1="12.95" x2="4.73" y2="12.95" />
    <line x1="4.73" y1="12.95" x2="4.73" y2="8.44" />
    <line x1="4.73" y1="8.44" x2="13" y2="8.44" />
    <line x1="13" y1="8.44" x2="13" y2="12.95" />
    <line x1="-0" y1="5.45" x2="0.26" y2="5.45" />
    <line x1="0.26" y1="5.45" x2="0.26" y2="5.8" />
    <line x1="0.26" y1="5.8" x2="0" y2="5.8" />
    <line x1="0" y1="5.8" x2="-0" y2="5.45" />
    <line x1="-0" y1="2.73" x2="0.26" y2="2.73" />
    <line x1="0.26" y1="2.73" x2="0.26" y2="3.08" />
    <line x1="0.26" y1="3.08" x2="0" y2="3.08" />
    <line x1="0" y1="3.08" x2="-0" y2="2.73" />
    <line x1="-0" y1="0" x2="1.03" y2="0" />
    <line x1="1.03" y1="0" x2="1.03" y2="0.28" />
    <line x1="1.03" y1="0.28" x2="0" y2="0.28" />
    <line x1="0" y1="0.28" x2="-0" y2="0" />
    <line x1="-0" y1="8.53" x2="-0" y2="8.26" />
    <line x1="-0" y1="8.26" x2="1.03" y2="8.26" />
    <line x1="1.03" y1="8.26" x2="1.03" y2="8.53" />
    <line x1="1.03" y1="8.53" x2="-0" y2="8.53" />
    <line x1="3.37" y1="8.53" x2="3.37" y2="8.26" />
    <line x1="3.37" y1="8.26" x2="4.56" y2="8.26" />
    <line x1="4.56" y1="8.26" x2="4.56" y2="8.53" />
    <line x1="4.56" y1="8.53" x2="3.37" y2="8.53" />
    <line x1="4.83" y1="8.53" x2="4.83" y2="8.26" />
    <line x1="4.83" y1="8.26" x2="10.32" y2="8.26" />
    <line x1="10.32" y1="8.26" x2="10.32" y2="8.53" />
    <line x1="10.32" y1="8.53" x2="4.83" y2="8.53" />
    <line x1="11.71" y1="8.26" x2="14.21" y2="8.26" />
    <line x1="14.21" y1="8.26" x2="14.21" y2="8.53" />
    <line x1="14.21" y1="8.53" x2="11.71" y2="8.53" />
    <line x1="11.71" y1="8.53" x2="11.71" y2="8.26" />
    <line x1="13.15" y1="9.29" x2="13.15" y2="11.21" />
    <line x1="13.15" y1="11.21" x2="12.87" y2="11.21" />
    <line x1="12.87" y1="11.21" x2="12.87" y2="9.29" />
    <line x1="12.87" y1="9.29" x2="13.15" y2="9.29" />
    <line x1="14.82" y1="5.31" x2="14.55" y2="5.31" />
    <line x1="14.55" y1="5.31" x2="14.55" y2="-0.69" />
    <line x1="14.55" y1="-0.69" x2="14.82" y2="-0.69" />
    <line x1="14.82" y1="-0.69" x2="14.82" y2="5.31" />
    <line x1="7.16" y1="-0.41" x2="7.16" y2="-0.69" />
    <line x1="7.16" y1="-0.69" x2="14.56" y2="-0.69" />
    <line x1="14.56" y1="-0.69" x2="14.56" y2="-0.41" />
    <line x1="14.56" y1="-0.41" x2="7.16" y2="-0.41" />
    <line x1="4.82" y1="1.81" x2="4.57" y2="1.81" />
    <line x1="4.57" y1="1.81" x2="4.57" y2="0.26" />
    <line x1="4.57" y1="0.26" x2="4.82" y2="0.26" />
    <line x1="4.82" y1="0.26" x2="4.82" y2="1.81" />
    <line x1="4.82" y1="5.73" x2="4.57" y2="5.73" />
    <line x1="4.57" y1="5.73" x2="4.57" y2="3.2" />
    <line x1="4.57" y1="3.2" x2="4.82" y2="3.2" />
    <line x1="4.82" y1="3.2" x2="4.82" y2="5.73" />
    <line x1="12.85" y1="13.09" x2="10.38" y2="13.09" />
    <line x1="10.38" y1="13.09" x2="10.38" y2="12.83" />
    <line x1="10.38" y1="12.83" x2="12.85" y2="12.83" />
    <line x1="12.85" y1="12.83" x2="12.85" y2="13.09" />
    <line x1="9.99" y1="13.09" x2="7.66" y2="13.09" />
    <line x1="7.66" y1="13.09" x2="7.66" y2="12.83" />
    <line x1="7.66" y1="12.83" x2="9.99" y2="12.83" />
    <line x1="9.99" y1="12.83" x2="9.99" y2="13.09" />
    <line x1="7.3" y1="13.09" x2="4.82" y2="13.09" />
    <line x1="4.82" y1="13.09" x2="4.82" y2="12.83" />
    <line x1="4.82" y1="12.83" x2="7.3" y2="12.83" />
    <line x1="7.3" y1="12.83" x2="7.3" y2="13.09" />
    <line x1="12.87" y1="9.29" x2="12.87" y2="8.53" />
    <line x1="12.87" y1="8.53" x2="13.15" y2="8.53" />
    <line x1="13.15" y1="8.53" x2="13.15" y2="9.29" />
    <line x1="12.87" y1="13.09" x2="12.87" y2="11.21" />
    <line x1="13.15" y1="11.21" x2="13.15" y2="13.09" />
    <line x1="13.15" y1="13.09" x2="12.87" y2="13.09" />
    <line x1="10.36" y1="13.09" x2="9.99" y2="13.09" />
    <line x1="9.99" y1="12.83" x2="10.36" y2="12.83" />
    <line x1="10.36" y1="12.83" x2="10.36" y2="13.09" />
    <line x1="7.66" y1="13.09" x2="7.29" y2="13.09" />
    <line x1="7.29" y1="13.09" x2="7.29" y2="12.83" />
    <line x1="7.29" y1="12.83" x2="7.66" y2="12.83" />
    <line x1="4.57" y1="10.96" x2="4.82" y2="10.96" />
    <line x1="4.82" y1="10.96" x2="4.82" y2="13.09" />
    <line x1="4.82" y1="13.09" x2="4.57" y2="13.09" />
    <line x1="4.57" y1="13.09" x2="4.57" y2="10.96" />
    <line x1="14.22" y1="8.27" x2="13.94" y2="8.27" />
    <line x1="13.94" y1="8.27" x2="13.94" y2="7.65" />
    <line x1="13.94" y1="7.65" x2="14.22" y2="7.65" />
    <line x1="14.22" y1="7.65" x2="14.22" y2="8.27" />
    <line x1="14.22" y1="6.22" x2="13.94" y2="6.22" />
    <line x1="13.94" y1="6.22" x2="13.94" y2="5.31" />
    <line x1="13.94" y1="5.31" x2="14.22" y2="5.31" />
    <line x1="14.22" y1="5.31" x2="14.22" y2="6.22" />
    <line x1="13.94" y1="7.65" x2="13.94" y2="6.22" />
    <line x1="14.22" y1="6.22" x2="14.22" y2="7.65" />
    <line x1="13.92" y1="5.31" x2="13.92" y2="3.48" />
    <line x1="13.92" y1="3.48" x2="14.55" y2="3.48" />
    <line x1="14.55" y1="3.48" x2="14.55" y2="5.31" />
    <line x1="14.55" y1="5.31" x2="13.92" y2="5.31" />
    <line x1="14.66" y1="5.07" x2="7.35" y2="5.07" />
    <line x1="7.35" y1="5.07" x2="7.35" y2="-0.51" />
    <line x1="7.35" y1="-0.51" x2="14.66" y2="-0.51" />
    <line x1="14.66" y1="-0.51" x2="14.66" y2="5.07" />
    <line x1="7.36" y1="5.06" x2="14.13" y2="5.06" />
    <line x1="14.13" y1="5.06" x2="14.13" y2="8.44" />
    <line x1="14.13" y1="8.44" x2="7.36" y2="8.44" />
    <line x1="7.36" y1="8.44" x2="7.36" y2="5.06" />
    <line x1="4.9" y1="3.46" x2="1.93" y2="3.46" />
    <line x1="1.93" y1="3.46" x2="1.93" y2="1.5" />
    <line x1="1.93" y1="1.5" x2="4.9" y2="1.5" />
    <line x1="4.9" y1="1.5" x2="4.9" y2="3.46" />
    <line x1="4.82" y1="9.55" x2="4.57" y2="9.55" />
    <line x1="4.57" y1="9.55" x2="4.57" y2="7.17" />
    <line x1="4.57" y1="7.17" x2="4.82" y2="7.17" />
    <line x1="4.82" y1="7.17" x2="4.82" y2="9.55" />
    <line x1="6.1" y1="8.58" x2="4.92" y2="9.79" />
    <line x1="4.92" y1="9.79" x2="4.92" y2="8.58" />
    <line x1="4.92" y1="8.58" x2="6.1" y2="8.58" />
    <line x1="4.57" y1="7.17" x2="4.57" y2="5.72" />
    <line x1="4.57" y1="5.72" x2="4.82" y2="5.72" />
    <line x1="4.82" y1="5.72" x2="4.82" y2="7.17" />
    <line x1="14.56" y1="1.94" x2="9.47" y2="1.94" />
    <line x1="9.47" y1="1.94" x2="8.88" y2="1.42" />
    <line x1="8.88" y1="1.42" x2="8.88" y2="-0.42" />
    <line x1="8.88" y1="-0.42" x2="14.56" y2="-0.42" />
    <line x1="14.56" y1="-0.42" x2="14.56" y2="1.94" />
  </g>
</svg>